# xmcd CD database file generated by Grip 3.2.0
# 
# Track frame offsets:
#       183
#       15075
#       27375
#       39910
#       54745
#       68193
#       85873
#       98160
#       112708
#       122905
#       135863
#       149950
#       163468
#       175495
#       188608
#       201645
#       214900
#       227908
# 
# Disc length: 3168 seconds
# 
# Revision: 2
# Processed by: cddbd v1.5.2PL0 Copyright (c) Steve Scherf et al.
# Submitted via: Grip 3.2.0
# 
DISCID=040c5e12
DTITLE=Various Artist - Rattlesnake Blues
DYEAR=1900
DGENRE=Blues
TTITLE0=Baby, please don't go - Muddy Waters
TTITLE1=Spoonful - Howlin' Wolf
TTITLE2=Tell me Mama - Little Walter
TTITLE3=Goin' down slow - Jimmy Witherspoon
TTITLE4=Stella Mae - John Lee Hooker
TTITLE5=The things I used to do - Little Milton
TTITLE6=Five spot /Otis Spann
TTITLE7=Rattlesnake - John Brim
TTITLE8=shed no tears /Lowell Fulson
TTITLE9=Downbound train - Chuck Berry
TTITLE10=Before you accuse me - Bo Diddley
TTITLE11=Tail dragger - Howlin'Wolf
TTITLE12=It's too late brother - Little Walter
TTITLE13=Too young to die - Sonny Boy Williamson
TTITLE14=Just want to make love to you - Muddy Waters
TTITLE15=All your love - Otis Rush
TTITLE16=Tiajuana /Memphis Slim
TTITLE17=Worried life blues - Chuck Berry
EXTD=
EXTT0=
EXTT1=
EXTT2=
EXTT3=
EXTT4=
EXTT5=
EXTT6=
EXTT7=
EXTT8=
EXTT9=
EXTT10=
EXTT11=
EXTT12=
EXTT13=
EXTT14=
EXTT15=
EXTT16=
EXTT17=
PLAYORDER=
